<svg xmlns="http://www.w3.org/2000/svg" width="20" height="20" viewBox="0 0 20 20">
  <g id="Iconly_Bold_Chart" data-name="Iconly/Bold/Chart" transform="translate(-2.001 -2.001)" opacity="0.4">
    <g id="Chart">
      <path id="Chart-2" data-name="Chart" d="M16.67,22H7.33a5.352,5.352,0,0,1-3.94-1.39A5.353,5.353,0,0,1,2,16.671V7.33A5.353,5.353,0,0,1,3.39,3.39,5.353,5.353,0,0,1,7.33,2H16.67A5.345,5.345,0,0,1,20.607,3.39,5.38,5.38,0,0,1,22,7.33v9.34a5.351,5.351,0,0,1-1.39,3.94A5.353,5.353,0,0,1,16.67,22Zm-.021-9.088a.868.868,0,0,0-.449.128.81.81,0,0,0-.38.79v3.28a.827.827,0,0,0,.83.75.843.843,0,0,0,.831-.75V13.83a.84.84,0,0,0-.392-.79A.823.823,0,0,0,16.649,12.913ZM12.051,6a.824.824,0,0,0-.441.128.843.843,0,0,0-.391.789V17.111a.843.843,0,0,0,.83.75.826.826,0,0,0,.83-.75V6.92a.811.811,0,0,0-.379-.789A.869.869,0,0,0,12.051,6ZM7.39,9.283a.821.821,0,0,0-.439.128.846.846,0,0,0-.391.79v6.91a.834.834,0,0,0,1.66,0V10.2a.846.846,0,0,0-.39-.79A.825.825,0,0,0,7.39,9.283Z" fill="#030229"/>
    </g>
  </g>
</svg>
