<svg xmlns="http://www.w3.org/2000/svg" width="20.001" height="20" viewBox="0 0 20.001 20">
  <g id="Category" transform="translate(-30 -144)" opacity="0.4">
    <path id="Category-2" data-name="Category" d="M44.08,164a2.548,2.548,0,0,1-2.54-2.561v-3.408a2.542,2.542,0,0,1,2.54-2.561h3.38A2.549,2.549,0,0,1,50,158.031v3.408A2.555,2.555,0,0,1,47.46,164Zm-11.54,0A2.555,2.555,0,0,1,30,161.439v-3.408a2.549,2.549,0,0,1,2.541-2.561H35.92a2.542,2.542,0,0,1,2.54,2.561v3.408A2.548,2.548,0,0,1,35.92,164Zm11.54-11.47a2.541,2.541,0,0,1-2.54-2.561v-3.408A2.548,2.548,0,0,1,44.08,144h3.38A2.555,2.555,0,0,1,50,146.561v3.408a2.549,2.549,0,0,1-2.541,2.561Zm-11.54,0A2.549,2.549,0,0,1,30,149.97v-3.408A2.555,2.555,0,0,1,32.54,144H35.92a2.548,2.548,0,0,1,2.54,2.561v3.408a2.541,2.541,0,0,1-2.54,2.561Z" fill="#030229"/>
  </g>
</svg>