<svg xmlns="http://www.w3.org/2000/svg" width="20" height="20.001" viewBox="0 0 20 20.001">
  <g id="Iconly_Bold_Activity" data-name="Iconly/Bold/Activity" transform="translate(-2 -2)" opacity="0.4">
    <g id="Activity">
      <path id="Activity-2" data-name="Activity" d="M7.4,22a5.465,5.465,0,0,1-3.976-1.429A5.47,5.47,0,0,1,2,16.6V9.2A5.5,5.5,0,0,1,3.424,5.216,5.451,5.451,0,0,1,7.4,3.78h8.049a4.861,4.861,0,0,0-.059.751A4.069,4.069,0,0,0,19.45,8.6a4.481,4.481,0,0,0,.74-.069V16.6a5.466,5.466,0,0,1-1.425,3.972A5.463,5.463,0,0,1,14.79,22ZM9.19,10.96a.778.778,0,0,0-.5.3L5.73,15.11l-.06.09a.749.749,0,0,0,.21.95.833.833,0,0,0,.46.149h.029A.714.714,0,0,0,6.93,16l2.51-3.231L12.29,14.91l.09.059a.755.755,0,0,0,.353.087.747.747,0,0,0,.6-.3l2.89-3.729-.041.02a.746.746,0,0,0,.08-.75.736.736,0,0,0-.608-.44c-.027,0-.055,0-.082,0a.769.769,0,0,0-.619.314L12.531,13.3,9.76,11.12a.787.787,0,0,0-.483-.165C9.248,10.956,9.219,10.958,9.19,10.96Zm7.99-6.55a2.41,2.41,0,1,1,2.409,2.41A2.411,2.411,0,0,1,17.18,4.41Z" fill="#030229"/>
    </g>
  </g>
</svg>