<svg xmlns="http://www.w3.org/2000/svg" width="18" height="20" viewBox="0 0 18 20">
  <g id="Schedule" transform="translate(-61 -356)">
    <g id="Iconly_Bold_Document" data-name="Iconly/Bold/Document" transform="translate(58 354)" opacity="0.4">
      <g id="Document">
        <path id="Document-2" data-name="Document" d="M16.191,22H7.81C4.753,22,3,20.236,3,17.16V6.83A4.909,4.909,0,0,1,4.265,3.271,4.865,4.865,0,0,1,7.81,2h8.381C19.247,2,21,3.76,21,6.83V17.16a4.89,4.89,0,0,1-1.246,3.582A4.819,4.819,0,0,1,16.191,22ZM8,15.736a.782.782,0,0,0-.671.374.8.8,0,0,0,0,.84.787.787,0,0,0,.653.366.718.718,0,0,0,.1-.006h7.84a.79.79,0,0,0,0-1.57H8.08C8.054,15.737,8.027,15.736,8,15.736Zm.08-4.557a.781.781,0,0,0,0,1.561h7.84a.781.781,0,0,0,0-1.561Zm0-4.529v.01h0a.779.779,0,0,0,0,1.559h2.989a.785.785,0,0,0,0-1.57Z" fill="#030229"/>
      </g>
    </g>
  </g>
</svg>