<svg xmlns="http://www.w3.org/2000/svg" width="19" height="20.001" viewBox="0 0 19 20.001">
  <g id="Iconly_Bold_Setting" data-name="Iconly/Bold/Setting" transform="translate(-2.502 -2)" opacity="0.4">
    <g id="Setting">
      <path id="Setting-2" data-name="Setting" d="M12.7,22h-1.39a2.067,2.067,0,0,1-2.126-2.05A1.9,1.9,0,0,0,7.3,18.13a1.581,1.581,0,0,0-.9.23,2.168,2.168,0,0,1-1.084.3A2.122,2.122,0,0,1,3.5,17.62l-.706-1.2a2,2,0,0,1-.02-2.05,2.1,2.1,0,0,1,.817-.79,1.653,1.653,0,0,0,.644-.64,1.783,1.783,0,0,0,.19-1.365A1.838,1.838,0,0,0,3.57,10.44a2.044,2.044,0,0,1-.756-2.83L3.5,6.43a2.124,2.124,0,0,1,2.882-.76,1.894,1.894,0,0,0,.9.224A1.959,1.959,0,0,0,8.946,4.98,1.529,1.529,0,0,0,9.181,4.1a1.8,1.8,0,0,1,.286-1.06A2.206,2.206,0,0,1,11.276,2h1.441a2.153,2.153,0,0,1,1.819,1.04,1.776,1.776,0,0,1,.276,1.06,1.529,1.529,0,0,0,.235.879,1.962,1.962,0,0,0,1.671.914,1.928,1.928,0,0,0,.9-.224,2.111,2.111,0,0,1,2.871.76l.685,1.18a2.027,2.027,0,0,1-.756,2.83,1.832,1.832,0,0,0-.853,1.139,1.77,1.77,0,0,0,.2,1.361,1.568,1.568,0,0,0,.634.64,2.313,2.313,0,0,1,.828.79,2,2,0,0,1-.021,2.05l-.715,1.2a2.1,2.1,0,0,1-2.892.74,1.621,1.621,0,0,0-.9-.23,1.9,1.9,0,0,0-1.891,1.82A2.062,2.062,0,0,1,12.7,22ZM12.012,9.18a2.826,2.826,0,1,0,0,5.65,2.825,2.825,0,1,0,0-5.65Z" fill="#030229"/>
    </g>
  </g>
</svg>