<svg xmlns="http://www.w3.org/2000/svg" width="17.317" height="16.667" viewBox="0 0 17.317 16.667">
  <g id="Logout" transform="translate(-61 -969.666)" opacity="0.4">
    <path id="Logout-2" data-name="Logout" d="M64.765,986.333a3.735,3.735,0,0,1-3.765-3.7v-9.258a3.744,3.744,0,0,1,3.773-3.709H68.91a3.734,3.734,0,0,1,3.757,3.7v3.992H67.579a.642.642,0,1,0,0,1.283h5.088v3.983a3.744,3.744,0,0,1-3.773,3.708Zm10.019-5.458a.643.643,0,0,1,0-.908l1.333-1.325h-3.45v-1.283h3.45l-1.333-1.325a.644.644,0,0,1,0-.909.636.636,0,0,1,.908-.008l2.434,2.426a.633.633,0,0,1,.192.458.618.618,0,0,1-.192.45l-2.434,2.425a.634.634,0,0,1-.908,0Z" fill="#030229"/>
  </g>
</svg>